<?xml version="1.0" encoding="UTF-8"?>
<svg id="Layer_2" data-name="Layer 2" xmlns="http://www.w3.org/2000/svg" viewBox="0 0 31 31">
  <defs>
    <style>
      .cls-1 {
        fill: #dda61f;
      }

      .cls-2 {
        fill: none;
        stroke: #1e1e1e;
        stroke-miterlimit: 10;
      }
    </style>
  </defs>
  <g id="Layer_1-2" data-name="Layer 1">
    <g>
      <path class="cls-1" d="M15.5,25.23H7.75c-1.53,0-2.54-1.01-2.54-2.54V7.04c0-1.53,1.01-2.54,2.54-2.54h12.45c1.53,0,2.54,1.01,2.55,2.54v4.37c-.23,.03-.45,.05-.67,.09-.97,.21-1.72,.76-2.16,1.65-1.46,2.96-2.9,5.91-4.33,8.87-.44,.91-.49,1.87-.19,2.84,.03,.1,.07,.21,.1,.31,0,.01,0,.03-.01,.07Zm-2.34-14.36h1.5c1.1,0,2.21,0,3.31,0,.42,0,.75-.31,.79-.71s-.23-.78-.63-.86c-.11-.02-.21-.02-.32-.02H8.74c-.13,0-.25,0-.37,0-.34,.03-.58,.19-.71,.51-.21,.54,.18,1.08,.79,1.08,1.56,0,3.13,0,4.7,0Zm-.35,1.6h-4.39c-.47,0-.82,.35-.83,.79,0,.45,.35,.81,.81,.81,2.92,0,5.83,0,8.75,0,.15,0,.33-.06,.47-.15,.3-.19,.41-.55,.31-.87-.11-.35-.4-.57-.79-.57-1.44,0-2.89,0-4.33,0Zm-.83,3.19h-3.49c-.53,0-.89,.32-.9,.79s.36,.81,.89,.81h7c.53,0,.89-.33,.89-.81s-.37-.79-.9-.79h-3.49Zm-.79,4.79h2.72c.51,0,.87-.34,.86-.8,0-.46-.36-.79-.87-.79h-5.43c-.51,0-.87,.33-.87,.79,0,.47,.36,.81,.89,.81h2.72Z"/>
      <path d="M16.77,23.65c.11-.35,.17-.73,.33-1.06,1.39-2.88,2.8-5.76,4.21-8.63,.42-.86,1.32-1.17,2.18-.77,.47,.22,.93,.45,1.38,.68,.83,.42,1.14,1.32,.74,2.15-1.41,2.9-2.83,5.8-4.24,8.7-.29,.61-.77,1.01-1.4,1.23-.47,.16-.94,.33-1.41,.49-.53,.17-.93-.01-1.1-.53-.21-.63-.41-1.26-.61-1.89-.03-.11-.03-.23-.04-.35-.01-.01-.03-.01-.05-.02Z"/>
    </g>
    <path class="cls-2" d="M28.4,30.5H2.6c-1.2,0-2.1-.9-2.1-2.1V2.6C.5,1.4,1.4,.5,2.6,.5H28.4c1.2,0,2.1,.9,2.1,2.1V28.4c0,1.2-.9,2.1-2.1,2.1Z"/>
  </g>
</svg>