<?xml version="1.0" encoding="UTF-8"?>
<svg id="Layer_2" data-name="Layer 2" xmlns="http://www.w3.org/2000/svg" viewBox="0 0 31 31">
  <defs>
    <style>
      .cls-1 {
        fill: #dda61f;
      }

      .cls-2 {
        fill: none;
        stroke: #1e1e1e;
        stroke-miterlimit: 10;
      }
    </style>
  </defs>
  <g id="Layer_1-2" data-name="Layer 1">
    <g>
      <path d="M25.99,8.25c-.16,.35-.45,.47-.83,.46-.73-.02-1.46,0-2.19,0-.47,0-.71-.24-.71-.7v-.52h-2.49c.08,.06,.14,.1,.2,.14,1.91,1.33,3.05,3.17,3.39,5.47,.06,.42,.14,.7,.56,.93,.64,.35,.91,1.18,.74,1.89-.17,.73-.79,1.3-1.49,1.4-.81,.11-1.53-.24-1.9-.91-.52-.95-.17-2.06,.81-2.55,.1-.05,.13-.1,.12-.22-.21-1.93-1.06-3.51-2.58-4.72-.7-.56-1.5-.94-2.36-1.19-.11-.03-.15,0-.21,.09-.76,1.17-2.35,1.17-3.11,0-.06-.1-.12-.12-.23-.09-2.62,.81-4.22,2.56-4.82,5.22-.05,.21-.06,.43-.1,.65-.03,.13,.01,.19,.13,.25,.66,.33,1.03,.88,1.03,1.62s-.33,1.3-.99,1.65c-.91,.5-2.05,.11-2.53-.86-.43-.88-.02-2.02,.9-2.42,.18-.08,.22-.18,.24-.35,.2-2.01,1.02-3.72,2.48-5.11,.34-.33,.73-.61,1.1-.91h-2.43c0,.19,0,.38,0,.57-.01,.39-.26,.64-.65,.65-.81,0-1.63,0-2.44,0-.39,0-.64-.26-.65-.64,0-.8,0-1.6,0-2.4,0-.39,.26-.64,.65-.65,.81,0,1.63,0,2.44,0,.39,0,.64,.26,.65,.65,0,.18,0,.37,0,.59h.23c1.53,0,3.06,0,4.59,0,.15,0,.24-.04,.31-.18,.33-.67,.89-1.04,1.63-1.04,.75,0,1.31,.36,1.65,1.04,.07,.13,.13,.18,.29,.18,1.53,0,3.07,0,4.61,0h.22v-.56c0-.41,.25-.66,.67-.66,.79,0,1.57,0,2.36,0,.35,0,.56,.16,.7,.46,0,.92,0,1.85,0,2.78Z"/>
      <path class="cls-1" d="M11.77,25.99s-.1-.05-.14-.07c-.29-.15-.4-.44-.29-.74,.36-1.01,1.26-1.66,2.31-1.68,1.23-.02,2.46-.02,3.68,0,1.06,.02,1.95,.67,2.31,1.68,.13,.35,0,.6-.43,.82-2.48,0-4.97,0-7.45,0Z"/>
      <path class="cls-1" d="M18.72,22.53c-.12-.04-.24-.09-.35-.11-.37-.06-.74-.14-1.11-.15-1.14-.02-2.28,0-3.42-.01-.49,0-.96,.06-1.43,.23-.04,.02-.08,.02-.1,.02-.15-.5-.28-.99-.46-1.47-.33-.9-.83-1.7-1.48-2.41-.05-.06-.1-.11-.15-.16-.3-.33-.32-.58-.08-.95,.69-1.04,1.39-2.08,2.08-3.12,.83-1.25,1.66-2.5,2.5-3.75,.04-.06,.08-.12,.15-.22,.01,.08,.02,.13,.02,.17,0,1.82,0,3.63,0,5.45,0,.14-.05,.2-.17,.25-.78,.36-1.2,1.22-1.02,2.05,.18,.83,.96,1.45,1.81,1.44,.85,0,1.6-.62,1.79-1.44,.19-.83-.24-1.69-1.01-2.05-.1-.05-.17-.09-.17-.23,0-1.84,0-3.67,0-5.51,0-.03,0-.06,.01-.14,.06,.08,.09,.12,.12,.17,1.54,2.3,3.07,4.61,4.61,6.92,.25,.37,.24,.63-.06,.94-1.06,1.11-1.73,2.42-2.04,3.92-.02,.05-.03,.09-.05,.15Z"/>
      <path class="cls-1" d="M16.12,17.97c0,.33-.29,.61-.62,.61s-.61-.29-.61-.62c0-.33,.29-.61,.62-.61,.33,0,.61,.29,.61,.62Z"/>
    </g>
    <path class="cls-2" d="M28.4,30.5H2.6c-1.2,0-2.1-.9-2.1-2.1V2.6C.5,1.4,1.4,.5,2.6,.5H28.4c1.2,0,2.1,.9,2.1,2.1V28.4c0,1.2-.9,2.1-2.1,2.1Z"/>
  </g>
</svg>