<?xml version="1.0" encoding="UTF-8"?>
<svg id="Layer_2" data-name="Layer 2" xmlns="http://www.w3.org/2000/svg" viewBox="0 0 31 31">
  <defs>
    <style>
      .cls-1 {
        fill: #dda61f;
      }

      .cls-2 {
        fill: none;
        stroke: #1e1e1e;
        stroke-miterlimit: 10;
      }
    </style>
  </defs>
  <g id="Layer_1-2" data-name="Layer 1">
    <g>
      <path class="cls-1" d="M4.5,24.4V6.61c.31-.8,.68-1.1,1.4-1.1H25.1c.84,0,1.4,.56,1.4,1.4V24.09c0,.84-.55,1.4-1.4,1.4H5.9c-.7,0-1.17-.36-1.36-1.02,0-.02-.03-.04-.04-.07Zm1.59-.5H24.9V10.25H6.09v13.65ZM21.93,7.24h0c-.08,0-.16,0-.24,0-.29,.01-.47,.17-.49,.46-.01,.21-.01,.42,0,.62,.02,.25,.19,.42,.45,.43,.18,0,.36,0,.54,0,.25-.01,.43-.17,.46-.43,.01-.22,.01-.44,0-.67-.02-.25-.2-.41-.46-.43-.09,0-.17,0-.26,0Zm-3,.76h0v.24c0,.34,.19,.52,.52,.52,.14,0,.28,0,.43,0,.31,0,.49-.19,.51-.49,0-.19,.01-.37,0-.56-.02-.28-.21-.46-.49-.47-.16,0-.33,0-.49,0-.28,.01-.46,.19-.47,.48,0,.1,0,.19,0,.28Zm6,0h0v-.22c0-.37-.18-.54-.54-.55h-.41c-.3,0-.49,.18-.51,.47-.01,.19-.01,.39,0,.58,.02,.28,.2,.46,.49,.47,.16,0,.31,0,.47,0,.31,0,.49-.19,.49-.5,0-.09,0-.18,0-.26Z"/>
      <path d="M17.37,13.29c-.03,.13-.04,.23-.07,.33-.76,2.35-1.51,4.69-2.27,7.03-.16,.51-.65,.72-1.06,.46-.3-.18-.39-.5-.26-.9,.64-1.97,1.27-3.93,1.91-5.89,.13-.41,.26-.83,.4-1.24,.1-.28,.31-.43,.6-.45,.28-.02,.51,.09,.65,.34,.06,.09,.08,.22,.11,.32Z"/>
      <path d="M19.86,16.94c-.61-.28-1.2-.56-1.78-.83-.15-.07-.3-.13-.45-.21-.34-.18-.48-.58-.32-.92,.16-.34,.55-.5,.9-.34,1.18,.54,2.36,1.09,3.54,1.64,.27,.13,.4,.35,.4,.66s-.14,.52-.41,.65c-1.17,.55-2.34,1.1-3.52,1.64-.37,.16-.77,0-.93-.34-.16-.35-.01-.75,.34-.93,.65-.31,1.31-.61,1.97-.91,.09-.04,.16-.07,.25-.12Z"/>
      <path d="M11.14,16.95c.74,.34,1.45,.67,2.15,1,.34,.16,.51,.47,.43,.8-.1,.45-.55,.67-.99,.48-.78-.36-1.55-.73-2.33-1.08-.38-.18-.76-.35-1.14-.53-.28-.13-.43-.34-.43-.66,0-.31,.14-.54,.42-.67,1.16-.54,2.32-1.08,3.48-1.61,.31-.14,.62-.08,.83,.14,.2,.22,.26,.57,.09,.81-.1,.14-.26,.27-.42,.34-.63,.31-1.27,.59-1.91,.89-.05,0-.1,.04-.18,.08Z"/>
    </g>
    <path class="cls-2" d="M28.4,30.5H2.6c-1.2,0-2.1-.9-2.1-2.1V2.6C.5,1.4,1.4,.5,2.6,.5H28.4c1.2,0,2.1,.9,2.1,2.1V28.4c0,1.2-.9,2.1-2.1,2.1Z"/>
  </g>
</svg>