<?xml version="1.0" encoding="UTF-8"?>
<svg id="Layer_2" data-name="Layer 2" xmlns="http://www.w3.org/2000/svg" viewBox="0 0 31 31">
  <defs>
    <style>
      .cls-1 {
        fill: #dda61f;
      }

      .cls-2 {
        fill: none;
        stroke: #1e1e1e;
        stroke-miterlimit: 10;
      }
    </style>
  </defs>
  <g id="Layer_1-2" data-name="Layer 1">
    <g>
      <path d="M7.45,8.18H23.55v9.5H7.45V8.18Zm7,8.79c.16,0,.26-.13,.32-.3,.72-2.17,1.44-4.33,2.16-6.5,.08-.24,0-.44-.21-.51-.21-.07-.4,.04-.49,.29-.01,.04-.02,.07-.04,.11-.44,1.33-.89,2.66-1.33,3.98-.27,.8-.53,1.6-.8,2.41-.1,.29,.06,.53,.38,.52Zm-3.5-3.66c.06-.06,.1-.1,.15-.13,.56-.47,1.11-.92,1.66-1.4,.2-.17,.22-.37,.09-.54-.13-.17-.35-.19-.54-.03-.72,.59-1.43,1.19-2.14,1.79-.21,.18-.23,.42-.02,.59,.73,.62,1.47,1.24,2.22,1.84,.17,.14,.37,.1,.51-.06,.13-.16,.12-.36-.05-.51-.13-.12-.27-.23-.4-.34-.48-.39-.97-.8-1.46-1.21Zm9.11,0c-.07,.06-.12,.1-.17,.14-.54,.45-1.09,.91-1.63,1.36-.22,.18-.26,.39-.11,.57s.35,.18,.58-.01c.06-.04,.1-.09,.16-.13,.64-.53,1.28-1.06,1.92-1.6,.24-.2,.28-.43,.07-.61-.73-.62-1.47-1.24-2.21-1.85-.17-.14-.39-.1-.51,.06-.13,.16-.11,.36,.05,.51,.1,.1,.22,.18,.33,.28,.5,.42,1,.84,1.52,1.27Z"/>
      <path class="cls-1" d="M6.69,6.7v.73h-1.03c-.29,0-.42,.13-.42,.42v10.44s0,.07,.01,.12H25.76V7.97c0-.43-.1-.53-.54-.53h-.91v-.72c.42,0,.84-.04,1.25,0,.54,.06,.92,.54,.93,1.11,0,1.2,0,2.4,0,3.59v9.41c0,.83-.43,1.26-1.25,1.26H5.75c-.81,0-1.25-.43-1.25-1.24V7.93c0-.79,.44-1.23,1.23-1.24,.31,0,.62,0,.95,0Zm8.79,13.93c.24,0,.49,0,.73,0s.39-.15,.39-.36-.14-.37-.38-.37c-.48,0-.96,0-1.44,0-.24,0-.38,.14-.39,.36,0,.23,.14,.36,.4,.37h.69Z"/>
      <path class="cls-1" d="M23.54,7.43H7.45c0-.06-.02-.12-.02-.18,0-.54,0-1.08,0-1.63,0-.64,.47-1.12,1.11-1.12,4.63,0,9.27,0,13.9,0,.63,0,1.1,.48,1.11,1.1,0,.55,0,1.1,0,1.65,0,.06,0,.12-.01,.18Zm-4.02-.73h2.13c.29,0,.45-.15,.44-.38,0-.23-.17-.35-.44-.35h-4.24c-.3,0-.45,.13-.45,.37,0,.24,.15,.37,.45,.37h2.11Zm-9.88-.37c0-.2-.17-.36-.37-.35s-.36,.17-.35,.37c0,.2,.18,.36,.37,.35,.19,0,.35-.18,.35-.37Zm1.1-.35c-.2,0-.37,.16-.37,.36s.17,.37,.36,.37,.37-.17,.37-.36c0-.2-.16-.37-.36-.37Zm1.83,.37c0-.2-.16-.37-.35-.37-.2,0-.37,.16-.37,.35,0,.2,.16,.37,.35,.37,.2,0,.37-.16,.37-.35Z"/>
      <path class="cls-1" d="M15.49,26.49h-4.6c-.41,0-.52-.11-.52-.51,0-.21,0-.41,0-.62,.02-.59,.48-1.06,1.07-1.06,2.71,0,5.4,0,8.11,0,.59,0,1.06,.47,1.08,1.06,0,.21,0,.43,0,.64,0,.37-.12,.5-.49,.5-1.55,0-3.1,0-4.65,0Z"/>
      <path class="cls-1" d="M12.8,23.55c.12-.22,.21-.43,.34-.63,.02-.04,.1-.09,.16-.09,1.46,0,2.93,0,4.39,0,.06,0,.13,.04,.16,.08,.12,.2,.22,.41,.34,.64h-5.39Z"/>
    </g>
    <path class="cls-2" d="M28.4,30.5H2.6c-1.2,0-2.1-.9-2.1-2.1V2.6C.5,1.4,1.4,.5,2.6,.5H28.4c1.2,0,2.1,.9,2.1,2.1V28.4c0,1.2-.9,2.1-2.1,2.1Z"/>
  </g>
</svg>