<?xml version="1.0" encoding="UTF-8"?>
<svg id="Layer_2" data-name="Layer 2" xmlns="http://www.w3.org/2000/svg" viewBox="0 0 31 31">
  <defs>
    <style>
      .cls-1 {
        fill: #dda61f;
      }

      .cls-2 {
        fill: #1e1e1e;
      }

      .cls-3 {
        fill: none;
        stroke: #1e1e1e;
        stroke-miterlimit: 10;
      }
    </style>
  </defs>
  <g id="Layer_1-2" data-name="Layer 1">
    <g>
      <path class="cls-1" d="M3.5,7.34c.12-.48,.27-.94,.59-1.33,.51-.62,1.17-.97,1.98-1.02,.1,0,.2,0,.3,0,4.52,0,9.04,0,13.56,0,.21,0,.45,.05,.6,.18,.14,.12,.25,.36,.25,.54,.01,3,.02,6,0,9,0,1.45-1.24,2.61-2.74,2.61-2.37,0-4.73,0-7.1,0-.45,0-.89,0-1.34,0-.44,0-.83,.13-1.18,.38-1.22,.87-2.44,1.74-3.66,2.61-.57,.4-.94,.33-1.28-.27V7.34Zm9.11,2.87c.63,0,1.26,0,1.9,0,.73,0,1.45,0,2.18,0,.39,0,.68-.29,.7-.65,.02-.38-.24-.69-.63-.74-.05,0-.11,0-.16,0-2.65,0-5.29,0-7.94,0-.1,0-.2,.01-.3,.04-.39,.11-.59,.54-.44,.92,.11,.29,.36,.45,.72,.45,1.33,0,2.65,0,3.98,0Zm0,3.28c.63,0,1.26,0,1.9,0,.73,0,1.45,0,2.18,0,.39,0,.68-.29,.7-.65,.02-.38-.24-.69-.63-.74-.05,0-.11,0-.16,0-2.65,0-5.29,0-7.94,0-.1,0-.2,.01-.3,.04-.39,.11-.59,.54-.44,.92,.11,.29,.36,.45,.72,.45,1.33,0,2.65,0,3.98,0Z"/>
      <path class="cls-2" d="M10.2,18.73c.13,0,.22,0,.31,0,2.51,0,5.02,0,7.52,0,1.88,0,3.48-1.18,3.99-2.96,.11-.38,.16-.78,.17-1.18,.02-1.29,0-2.58,0-3.87,0-.09,0-.17,0-.27,.05,0,.1-.02,.14-.02,.83,0,1.66-.01,2.48,0,1.49,.03,2.66,1.22,2.67,2.71,0,3.07,0,6.14,0,9.21,0,.95,0,1.91,0,2.86,0,.32-.1,.57-.39,.72-.29,.14-.55,.08-.81-.11-1.22-.88-2.45-1.75-3.68-2.63-.41-.29-.85-.43-1.36-.43-2.74,0-5.48,0-8.23,0-1.68,0-2.84-1.16-2.84-2.84,0-.39,0-.78,0-1.2Z"/>
      <rect class="cls-3" x=".5" y=".5" width="30" height="30" rx="2.1" ry="2.1"/>
    </g>
  </g>
</svg>