<?xml version="1.0" encoding="UTF-8"?>
<svg id="Layer_2" data-name="Layer 2" xmlns="http://www.w3.org/2000/svg" viewBox="0 0 31 31">
  <defs>
    <style>
      .cls-1 {
        fill: #dda61f;
      }

      .cls-2 {
        fill: none;
        stroke: #1e1e1e;
        stroke-miterlimit: 10;
      }
    </style>
  </defs>
  <g id="Layer_1-2" data-name="Layer 1">
    <g>
      <path class="cls-1" d="M12.34,19.86c.07,.12,.11,.2,.16,.28,.73,1.29,1.46,2.58,2.19,3.87,.44,.78,.22,1.46-.61,1.82-.43,.19-.85,.37-1.28,.55-.67,.28-1.23,.1-1.58-.54-.78-1.38-1.57-2.77-2.35-4.15-.08-.14-.16-.19-.32-.15-1.02,.21-2.11-.3-2.58-1.25-.4-.8-.78-1.63-1.13-2.45-.51-1.23,.02-2.56,1.24-3.13s2.45-1.1,3.66-1.68c1.3-.62,2.47-1.43,3.31-2.65,.11-.16,.21-.32,.31-.49,.16-.26,.25-.5,.15-.84-.18-.64,.21-1.26,.82-1.48s1.28,.06,1.57,.66c.31,.65,.6,1.31,.9,1.97,.14,.31,.27,.61,.42,.91,.04,.07,.15,.16,.23,.17,.92,.09,1.59,.54,1.96,1.37,.37,.83,.26,1.63-.28,2.35-.08,.11-.06,.19-.01,.29,.43,.95,.87,1.89,1.29,2.84,.37,.84-.14,1.73-1.05,1.82-.54,.05-.94-.19-1.23-.64-.06-.1-.18-.19-.29-.22-1.41-.37-2.8-.21-4.17,.26-.44,.14-.87,.33-1.33,.51Zm1.62-9.68c-.41,.72-.88,1.33-1.48,1.82-.6,.49-1.23,.93-1.88,1.41,.81,1.78,1.64,3.6,2.48,5.42,1.5-.53,3-.82,4.61-.48-1.25-2.73-2.47-5.42-3.73-8.17Zm-4.55,11.04s0,.05,.01,.06c.8,1.43,1.61,2.85,2.42,4.27,.14,.26,.35,.32,.64,.21,.45-.19,.9-.38,1.35-.57,.44-.19,.52-.42,.27-.84-.76-1.34-1.51-2.67-2.27-4-.03-.06-.07-.12-.11-.18-.78,.35-1.54,.7-2.3,1.05Zm9.31-6.83c.64-1.12-.22-2.34-1.08-2.38,.35,.78,.71,1.56,1.08,2.38Z"/>
      <path d="M18.59,8.47s-.04-.03-.05-.03c-.7-.11-.95-.52-.75-1.3,.17-.64,.29-1.29,.42-1.93,.12-.58,.47-.81,1.05-.69,1.18,.26,2.35,.5,3.52,.76,.58,.12,.8,.48,.68,1.06-.16,.73-.31,1.46-.47,2.19-.12,.53-.49,.77-1.02,.65-.57-.12-1.13-.26-1.71-.37-.11-.02-.24-.01-.33,.03-.4,.17-.79,.35-1.19,.52-.07,.03-.19,.04-.25,0-.04-.03-.06-.16-.04-.23,.04-.23,.09-.44,.14-.67Zm2.19-2.4s-.04-.03-.06-.04c-.27-.27-.6-.32-.87-.11-.25,.19-.3,.55-.11,.86,.17,.27,.35,.55,.54,.81,.05,.07,.22,.14,.28,.11,.34-.21,.69-.43,1-.68,.22-.17,.24-.5,.12-.72-.12-.24-.4-.36-.67-.3-.07,.01-.15,.05-.23,.08Z"/>
      <path d="M21.61,17.47c-.09-.04-.17-.06-.24-.09-.38-.15-.57-.52-.45-.9,.24-.72,.49-1.42,.75-2.13,.14-.36,.5-.54,.87-.41,1.11,.38,2.23,.77,3.34,1.16,.39,.14,.56,.51,.43,.9-.24,.7-.48,1.39-.73,2.09-.15,.4-.51,.57-.92,.44-.52-.17-1.02-.36-1.54-.53-.11-.04-.26-.04-.37,0-.36,.09-.71,.22-1.07,.32-.08,.02-.21,.03-.26-.02-.04-.04-.03-.17,0-.25,.06-.19,.12-.37,.19-.57Zm1.46-.59c.32-.09,.65-.17,.98-.27,.15-.04,.17-.18,.09-.31-.19-.27-.37-.53-.58-.78-.11-.13-.27-.11-.34,.04-.14,.34-.26,.7-.37,1.05-.05,.17,.05,.24,.21,.26Z"/>
      <path d="M23.2,12.36c-.09,0-.17-.01-.24-.02-.31-.04-.5-.23-.5-.54-.01-.56,0-1.12,0-1.68,0-.34,.23-.55,.57-.55,.87,0,1.74,0,2.61,0,.36,0,.58,.22,.58,.59,0,.53,0,1.06,0,1.58,0,.39-.22,.6-.61,.61-.38,0-.76-.01-1.14,0-.12,0-.26,.05-.36,.12-.23,.14-.44,.32-.66,.47-.16,.11-.24,.07-.24-.12,0-.15,0-.3,0-.47Zm1.21-1.81c-.19,0-.39,0-.58,0-.26,0-.4,.14-.4,.35,0,.2,.15,.34,.39,.34,.39,0,.79,0,1.18,0,.24,0,.39-.14,.39-.34,0-.21-.14-.34-.4-.35h-.59Z"/>
    </g>
    <path class="cls-2" d="M28.4,30.5H2.6c-1.2,0-2.1-.9-2.1-2.1V2.6C.5,1.4,1.4,.5,2.6,.5H28.4c1.2,0,2.1,.9,2.1,2.1V28.4c0,1.2-.9,2.1-2.1,2.1Z"/>
  </g>
</svg>