<?xml version="1.0" encoding="UTF-8"?>
<svg id="Layer_2" data-name="Layer 2" xmlns="http://www.w3.org/2000/svg" viewBox="0 0 31 31">
  <defs>
    <style>
      .cls-1 {
        fill: #dda61f;
      }

      .cls-2 {
        fill: none;
        stroke: #1e1e1e;
        stroke-miterlimit: 10;
      }
    </style>
  </defs>
  <g id="Layer_1-2" data-name="Layer 1">
    <g>
      <path class="cls-1" d="M4.5,26.02v-.34c.26-.63,.83-.44,1.33-.48v-4.44c0-.46,.26-.72,.72-.72h2.38c.52,0,.76,.25,.76,.76v4.37h1.29v-5.9c0-.55,.24-.79,.78-.79h2.32c.53,0,.77,.24,.77,.77v5.91h1.29v-8.32c0-.48,.25-.73,.73-.73h2.34c.56,0,.8,.23,.8,.79v8.26h1.29V12.59c0-.49,.25-.74,.74-.74h2.32c.57,0,.81,.23,.81,.8v12.56c.25,0,.48,0,.71,0,.33,.01,.6,.27,.63,.59,.02,.32-.21,.62-.53,.68-.09,.02-.18,.01-.28,.01-6.77,0-13.55,0-20.32,0-.42,0-.71-.1-.88-.48Z"/>
      <path d="M24.95,4.5c.3,.11,.44,.34,.52,.65,.31,1.21,.64,2.4,.96,3.6,.01,.03,.02,.07,.03,.1,.1,.4-.07,.75-.42,.84-.36,.09-.72-.14-.83-.53-.18-.68-.37-1.37-.55-2.05-.02-.05-.03-.1-.06-.19-.13,.21-.25,.4-.37,.59-1.9,2.9-4.39,5.21-7.29,7.08-2.38,1.54-4.94,2.66-7.71,3.28-1.28,.29-2.58,.45-3.89,.47-.4,0-.68-.11-.83-.49v-.3c.14-.38,.42-.51,.82-.51,2.73-.02,5.32-.71,7.79-1.84,3.6-1.65,6.67-3.99,9.12-7.11,.37-.48,.7-.99,1.04-1.49,.09-.13,.16-.27,.27-.45-.2,.05-.35,.08-.51,.13-.65,.18-1.31,.36-1.97,.53-.32,.08-.58,0-.75-.24-.15-.21-.18-.51-.02-.7,.11-.13,.26-.25,.42-.29,1.21-.34,2.43-.66,3.64-.99,.09-.02,.17-.06,.26-.09,.1-.01,.2-.01,.3-.01Z"/>
    </g>
    <path class="cls-2" d="M28.4,30.5H2.6c-1.2,0-2.1-.9-2.1-2.1V2.6C.5,1.4,1.4,.5,2.6,.5H28.4c1.2,0,2.1,.9,2.1,2.1V28.4c0,1.2-.9,2.1-2.1,2.1Z"/>
  </g>
</svg>