<svg xmlns="http://www.w3.org/2000/svg" width="1567.768" height="553.332" viewBox="0 0 1567.768 553.332">
  <g id="Group_18" data-name="Group 18" transform="translate(-219.006 -99.417)">
    <path id="Path_46" data-name="Path 46" d="M7.47-60.632H98.832q32.752,0,57.891,12.5T195.8-12.94q13.934,22.7,13.934,52.864T195.8,92.787q-13.934,22.7-39.073,35.195t-57.891,12.5H7.47Zm89.064,162.9q30.167,0,48.123-16.807t17.956-45.537q0-28.73-17.956-45.537T96.534-22.421H54.013V102.268Zm142.5-162.9h46.543V140.479H239.035Zm224.383,97.4h42.521v81.594a121.483,121.483,0,0,1-37.924,18.962,147.236,147.236,0,0,1-43.383,6.608q-31.316,0-56.311-13.36A99.45,99.45,0,0,1,329.1,93.505q-14.221-23.7-14.221-53.582T329.1-13.659a98.968,98.968,0,0,1,39.5-37.062q25.283-13.36,56.886-13.36,26.432,0,47.979,8.906a95.069,95.069,0,0,1,36.2,25.857L479.795-1.735q-21.548-22.7-52-22.7-19.249,0-34.189,8.044a57.711,57.711,0,0,0-23.271,22.7Q362,20.961,362,39.923q0,18.675,8.332,33.327A58.932,58.932,0,0,0,393.46,96.091q14.8,8.188,33.758,8.188,20.111,0,36.2-8.619Zm79.87-97.4h46.543V140.479H543.288ZM673.436-22.709H609.081V-60.632H784.335v37.924H719.979V140.479H673.436ZM925.975,97.384H832.6l-17.813,43.1H767.1L856.735-60.632H902.7l89.926,201.111H943.787ZM911.322,62.046l-31.891-77-31.891,77Zm96.534-122.678H1054.4V102.555h100.843v37.924H1007.856Z" transform="translate(212.002 163.497)"/>
    <g id="Group_12" data-name="Group 12" transform="translate(219.47 340.839)">
      <g id="Group_8" data-name="Group 8" transform="translate(0)">
        <path id="Union_1" data-name="Union 1" d="M1528.461,304.464a196.754,196.754,0,0,1-12.945-14.862q-6.227-7.911-14.381-19.893-28.276-24.924-74.053-48.649T1358.3,186.068l-2.635-1.288c-40.668,58.2-88.381,105.018-116.073,105.018-.741,0-13.229,2.947-13.964,2.212-20.651-.735-58.254-9.587-73.741-63.418-7.376-25.81-8.111-51.613-8.111-75.952,0-23.592,0-45.72-7.376-63.412-5.9-14.752-12.534-15.487-16.222-15.487-24.333-2.212-53.1,28.021-73.741,76.688-13.275,31.709-22.857,72.264-32.444,112.085l-2.212,9.587c-2.953,13.275-14.752,21.386-28.021,19.91a25.642,25.642,0,0,1-22.863-25.81c-.735-45.72.741-90.7,2.212-138.629.741-24.333,1.476-48.672,2.212-74.482,0-14.746,12.54-26.545,26.551-25.8a26.926,26.926,0,0,1,25.81,27.28c-.741,13.275-.741,26.545-1.476,39.82,29.5-49.408,67.841-75.952,107.661-73,28.021,2.212,49.407,19.169,61.207,47.931,11.058,27.28,11.058,55.3,11.058,82.587,0,22.122,0,43.508,5.9,62.677,7.376,25.074,19.175,25.81,25.809,25.81,4.84.2,16.411-9.8,31.241-25.569,0-.24,0-.479,0-.716a305.143,305.143,0,0,1,2.877-41.221L1273.938,19.5q3.352-4.316,10.068-5.274,7.668,0,12.459,2.4l9.587,2.877c1.916-1.279,3.358-1.922,4.313-1.922q10.543,0,10.549,61.838v22.046l-.961,13.42.6,25.9c25.716-33.833,49.514-68.615,60.675-90.645l17.7-36.867c2.947-5.164,8.846-12.54,14.011-13.275,11.058,4.423,17.693,15.487,15.481,27.286-4.306,32.681-21.766,73.9-44.952,113.92q16.427,11.1,50.562,31.2l12.945,7.191,3.352,1.442,2.4,1.436,3.839,1.916,11.984,7.191,1.436.481,1.436.481,1.442.955h.475v.481l2.877,1.916,3.839,1.916H1481v.481l.481.481,2.4,1.436,1.916,1.442,4.794,2.872q8.146,4.794,19.175,12.465t27.321,21.091q16.291,13.417,29.717,35.947v32.595a34.344,34.344,0,0,1-17.733,4.794Q1535.168,311.411,1528.461,304.464ZM751.83,289.8a111.617,111.617,0,0,1-36.138-15.487,136.075,136.075,0,0,1-16.233-13.83,146.915,146.915,0,0,1-25.347,16.783,108.59,108.59,0,0,1-39.085,8.846,78.077,78.077,0,0,1-41.291-7.376c-14.01-8.111-25.074-19.169-32.444-33.921a265.882,265.882,0,0,1-17.7-45.714l-2.212-6.641c-1.476-5.158-2.953-11.058-5.164-18.434-2.953-8.111-6.635-19.91-11.064-34.656a360,360,0,0,0-15.481-39.085c-7.376,6.635-15.487,15.487-25.81,25.074q-15.484,15.484-28.762,28.756c-28.021,29.5-51.619,52.354-71.523,69.318-8.852,8.846-21.386,17.7-36.873,26.545s-33.921,11.8-53.1,8.852c-22.857-5.9-33.382-18.439-45.922-36.873-11.8-19.175-14.213-36.132-18.636-52.354-5.164-15.487-8.852-31.709-12.534-47.2a449.291,449.291,0,0,0-14.011-50.143c-.741.735-.741,2.212-1.476,2.953L95.706,262.513a88.008,88.008,0,0,1-17.7,19.91,48.852,48.852,0,0,1-25.81,11.8H49.251c-10.328,0-19.91-4.423-28.021-12.534-5.164-6.635-8.852-13.275-10.328-20.645-1.471-6.641-2.947-12.54-2.947-17.7C4.267,208.682,1.32,178.45.579,151.9-.9,126.1.579,94.386,3.532,57.519,5,50.143,7.955,44.243,13.113,39.82a25.052,25.052,0,0,1,19.175-5.9q11.064,1.1,17.7,8.846c4.423,5.164,5.9,11.8,5.9,19.175-2.953,32.444-4.423,60.465-3.688,83.328s2.947,49.4,5.9,78.9L157.521,46.455c10.323-14.746,19.91-24.333,28.756-29.5q14.381-6.635,24.339-4.423A38.156,38.156,0,0,1,226.838,17.7c5.9,4.423,11.058,8.846,14.746,14.746,2.953,5.9,5.9,11.064,8.111,16.963a467.4,467.4,0,0,1,17.7,60.465,340.072,340.072,0,0,0,11.064,43.508c11.058,31.709,10.728,50.143,25.48,54.566,6.635.735,14.011-.735,22.122-5.9s15.481-11.058,23.6-17.7c18.434-16.222,40.555-38.344,68.577-66.365L466.9,69.318c11.8-11.064,19.91-18.44,25.81-22.122s10.323-5.9,14.752-5.9c19.169-2.217,33.921,8.111,45.714,29.492,11.064,22.122,22.127,51.619,32.45,88.492,2.212,6.635,3.688,12.534,5.158,16.957l2.212,6.635a250.463,250.463,0,0,0,11.064,30.239c3.688,9.582,8.846,16.222,13.275,19.169,3.682,2.212,8.846,2.212,15.481,2.212a56.886,56.886,0,0,0,19.175-5.158A79.22,79.22,0,0,0,670.874,216.6,167.843,167.843,0,0,1,660.39,171.08q-2.214-51.993,24.333-92.916c11.8-20.645,31.709-38.344,58.254-52.354,27.286-14.752,56.783-19.175,87.751-12.534,38.344,2.947,70.053,19.9,93.651,51.613,29.5,45.72,30.968,95.127,4.423,146.005-26.545,45.72-64.889,72.27-115.031,81.852a124.206,124.206,0,0,1-24.339,2.217A139.49,139.49,0,0,1,751.83,289.8ZM773.21,63.418c-19.169,11.058-33.921,25.069-42.767,39.82-6.641,11.793-11.8,22.122-14.752,31.7s-3.682,20.651-2.947,33.185c2.212,28.021,13.275,49.408,32.444,63.418,16.222,9.587,36.132,13.27,60.465,9.587,33.921-5.9,59.73-25.074,78.17-56.042a94.675,94.675,0,0,0,11.8-46.461c-.741-16.957-5.164-30.968-13.275-44.243-9.587-12.534-23.6-22.122-41.3-28.756-10.114-3.371-21.912-5.058-35.26-5.058A204.4,204.4,0,0,0,773.21,63.418Z" transform="translate(0)" fill="#ffd34e" stroke="rgba(0,0,0,0)" stroke-miterlimit="10" stroke-width="1"/>
      </g>
    </g>
  </g>
</svg>
