<?xml version="1.0" encoding="UTF-8"?>
<svg id="Layer_2" data-name="Layer 2" xmlns="http://www.w3.org/2000/svg" viewBox="0 0 31 31">
  <defs>
    <style>
      .cls-1 {
        fill: #dda61f;
      }

      .cls-2 {
        fill: none;
        stroke: #1e1e1e;
        stroke-miterlimit: 10;
      }
    </style>
  </defs>
  <g id="Layer_1-2" data-name="Layer 1">
    <g>
      <path class="cls-1" d="M15,16.4c.16,.21,.32,.42,.51,.67h-6.16c-.06,0-.13,0-.2,0-.15,.03-.25,.12-.25,.28-.01,.17,.08,.27,.24,.31,.07,.02,.16,.01,.24,.01h6.36c.17,0,.27,.04,.37,.18,.32,.44,.65,.88,.98,1.31,.42,.56,1.05,.62,1.57,.16,.13-.12,.25-.23,.38-.35,.44-.41,.5-.94,.14-1.43-.58-.79-1.17-1.58-1.76-2.37-.05-.06-.09-.13-.15-.21,.14-.06,.28-.12,.41-.16,.05-.02,.12-.02,.16,.01,1.05,.65,1.92,1.47,2.28,2.7,.39,1.32,0,2.46-.88,3.47-.05,.06-.16,.08-.25,.08-.95,0-1.89,0-2.85,0-.7,0-1.11,.41-1.11,1.11v1.05c-.39,.05-.77,.14-1.15,.16-.66,.03-1.32,0-1.98,.02-.13,0-.28,.04-.39,.12-1.08,.74-2.16,1.5-3.24,2.25-.07,.05-.18,.06-.26,.08,0-.09-.03-.19-.02-.28,.22-.98,.45-1.97,.68-2.97-.3-.17-.6-.32-.89-.5-.58-.35-1.09-.78-1.5-1.31-1.24-1.6-1.12-3.52,.32-4.99,1.01-1.03,2.27-1.62,3.65-1.97,.32-.08,.66-.14,1-.21-.1,1.06,.22,1.91,1.06,2.52,.84,.59,1.75,.63,2.7,.24Zm-2.16,2.91h-3.63c-.18,0-.3,.1-.31,.29,0,.19,.11,.28,.29,.31,.06,0,.12,0,.17,0h6.96c.07,0,.14,0,.21,0,.21-.04,.34-.28,.21-.44-.07-.09-.22-.15-.35-.15-1.19,0-2.38,0-3.56,0Z"/>
      <path d="M18.42,21.69h2.33c.35,0,.48,.14,.49,.48v3.43c0,.32-.14,.47-.46,.47h-4.68c-.33,0-.47-.14-.47-.48v-3.4c0-.35,.15-.49,.51-.49h2.28Zm-.85,2.18c0,.23,0,.46,0,.69,0,.21,.08,.26,.26,.16,.4-.22,.79-.46,1.19-.69,.18-.11,.18-.2,0-.31-.4-.23-.79-.46-1.19-.69-.17-.1-.25-.05-.26,.15,0,.22,0,.45,0,.68Z"/>
      <path d="M16.89,14.46c-.63-1.09-1.26-2.17-1.89-3.27,1.24-.98,2.35-2.08,3.21-3.45,1.09,1.89,2.17,3.76,3.27,5.66-1.61,.07-3.12,.47-4.59,1.07Z"/>
      <path d="M11.16,6.69c-.03,.06-.07,.13-.12,.19-.35,.47-.1,1.08,.49,1.14,.18,.02,.27,.1,.26,.29,0,.17,0,.35,0,.52,0,.17-.08,.24-.24,.26-.63,.1-.86,.66-.48,1.17,.1,.13,.1,.25-.02,.36-.13,.13-.25,.25-.38,.38-.11,.11-.22,.11-.35,.02-.54-.39-1.07-.17-1.18,.49-.02,.15-.1,.23-.26,.23-.18,0-.37,0-.56,0-.16,0-.23-.09-.25-.24-.09-.63-.66-.88-1.17-.49-.13,.1-.24,.11-.36-.01-.13-.13-.25-.25-.38-.38-.11-.11-.12-.22-.02-.35,.39-.55,.17-1.08-.48-1.19-.17-.03-.24-.11-.24-.28v-.52c0-.17,.07-.26,.25-.28,.6-.07,.86-.67,.49-1.15-.12-.16-.12-.28,.02-.41,.13-.12,.24-.24,.37-.36,.1-.1,.21-.1,.33-.02,.56,.4,1.07,.18,1.2-.5,.02-.09,.13-.2,.22-.21,.2-.03,.4-.01,.6-.01,.14,0,.21,.09,.24,.23,.12,.67,.62,.87,1.2,.49,.07-.05,.21-.06,.27-.02,.18,.14,.33,.32,.49,.48,.03,.02,.03,.06,.06,.13Zm-4.08,1.87c0,.85,.69,1.53,1.54,1.53s1.52-.69,1.53-1.52c0-.85-.68-1.54-1.53-1.54-.85,0-1.54,.67-1.54,1.53Z"/>
      <path d="M23.12,14.1c-.4-.04-.67-.23-.86-.56-.77-1.34-1.54-2.67-2.32-4.01-.5-.86-1-1.71-1.48-2.57-.35-.62,0-1.32,.68-1.42,.37-.06,.74,.13,.96,.52,.64,1.11,1.28,2.21,1.92,3.32,.62,1.08,1.25,2.16,1.87,3.24,.28,.48,.17,1.04-.28,1.31-.15,.09-.33,.13-.5,.18Z"/>
      <path d="M14.41,11.38c.68,1.17,1.34,2.32,2.02,3.5-.74,.36-1.37,.92-2.17,1.12-.93,.23-1.89-.28-2.27-1.15-.38-.88-.1-1.93,.69-2.45,.55-.37,1.14-.68,1.73-1.03Z"/>
      <path d="M26.11,16.59c-.06,.93-.48,1.85-1.07,2.71-.35,.52-.77,.98-1.3,1.33-.59,.37-1.2,.46-1.83,.09-.32-.18-.39-.43-.21-.74,.12-.22,.25-.44,.38-.65,.17-.29,.41-.35,.71-.19,.07,.04,.15,.09,.22,.13,.21,.1,.42,.07,.57-.1,.52-.6,.92-1.28,1.17-2.04,.07-.23,.01-.44-.21-.55-.53-.25-.63-.54-.26-1.08,.09-.13,.16-.27,.24-.41,.19-.31,.43-.37,.74-.19,.6,.35,.84,.89,.82,1.7Z"/>
      <path d="M15.52,16.09c.43-.24,.84-.48,1.25-.72,.05,.05,.09,.09,.12,.13,.58,.78,1.16,1.57,1.75,2.35,.23,.31,.21,.47-.07,.72-.13,.12-.25,.24-.39,.35-.19,.16-.43,.15-.57-.04-.69-.93-1.38-1.85-2.09-2.79Z"/>
      <path d="M22.7,6.9c-.26-.01-.41-.22-.31-.41,.24-.44,.48-.86,.74-1.28,.09-.14,.24-.16,.38-.09,.16,.09,.21,.23,.12,.39-.24,.43-.48,.85-.73,1.27-.04,.07-.15,.1-.2,.13Z"/>
      <path d="M25.41,10.43c-.22,0-.44,0-.67,0-.21,0-.34-.12-.33-.31,0-.18,.12-.29,.33-.29,.46,0,.9,0,1.36,0,.2,0,.32,.12,.33,.29,0,.18-.12,.3-.34,.31h-.67Z"/>
      <path d="M25.67,6.92c.06,.07,.19,.14,.21,.23,.02,.1-.02,.27-.09,.32-.4,.25-.81,.49-1.23,.71-.14,.07-.29,.02-.37-.12-.09-.14-.06-.29,.07-.38,.4-.25,.82-.48,1.23-.71,.03-.02,.08-.03,.17-.05Z"/>
      <path d="M23.02,9.89c-.33-.58-.66-1.15-1-1.72,.43-.1,.89,.1,1.11,.5,.24,.4,.2,.9-.12,1.23Z"/>
    </g>
    <path class="cls-2" d="M28.4,30.5H2.6c-1.2,0-2.1-.9-2.1-2.1V2.6C.5,1.4,1.4,.5,2.6,.5H28.4c1.2,0,2.1,.9,2.1,2.1V28.4c0,1.2-.9,2.1-2.1,2.1Z"/>
  </g>
</svg>