<svg xmlns="http://www.w3.org/2000/svg" width="27" height="24" viewBox="0 0 27 24" fill="none"><path d="M10.6568 24V12.486H5.70682C5.70682 10.6417 6.05682 9.09657 6.75682 7.85047C7.45682 6.55452 8.75682 5.58255 10.6568 4.93458V0C9.10682 0.199377 7.65682 0.672897 6.30682 1.42056C5.00682 2.11838 3.88182 3.01558 2.93182 4.11215C1.98182 5.20872 1.23182 6.47975 0.681818 7.92523C0.181818 9.37072 -0.0431817 10.9159 0.00681817 12.5608V24H10.6568ZM26.6318 24V12.486H21.6818C21.6818 10.6417 22.0318 9.09657 22.7318 7.85047C23.4318 6.55452 24.7318 5.58255 26.6318 4.93458V0C25.0818 0.199377 23.6318 0.672897 22.2818 1.42056C20.9818 2.11838 19.8568 3.01558 18.9068 4.11215C17.9568 5.20872 17.2068 6.47975 16.6568 7.92523C16.1568 9.37072 15.9318 10.9159 15.9818 12.5608V24H26.6318Z" fill="#F4B70C"></path></svg>