<?xml version="1.0" encoding="UTF-8"?>
<svg id="Layer_2" data-name="Layer 2" xmlns="http://www.w3.org/2000/svg" viewBox="0 0 31 31">
  <defs>
    <style>
      .cls-1 {
        fill: #dda61f;
      }

      .cls-2 {
        fill: none;
        stroke: #1e1e1e;
        stroke-miterlimit: 10;
      }
    </style>
  </defs>
  <g id="Layer_1-2" data-name="Layer 1">
    <g>
      <path class="cls-1" d="M7.51,14.91c.05-.94,.12-1.87,.44-2.77,.07-.19,.16-.37,.26-.54,.19-.32,.46-.48,.84-.47,.92,.01,1.77-.3,2.63-.58,1.04-.34,2.07-.72,3.11-1.07,.47-.16,.95-.29,1.47-.18,.58,.12,1.04,.45,1.42,.89,.68,.77,1.06,1.68,1.27,2.67,.41,1.9,.3,3.76-.49,5.56-.27,.61-.64,1.16-1.15,1.59-.62,.51-1.31,.72-2.09,.47-1.14-.37-2.27-.77-3.4-1.15-.97-.32-1.93-.65-2.97-.64-.26,0-.43-.16-.57-.36-.32-.45-.47-.97-.55-1.5-.09-.64-.14-1.27-.21-1.91Zm6.01,.03c.02,.9,.12,1.81,.45,2.68,.24,.61,.53,1.18,1.02,1.62,.55,.49,1.12,.51,1.67,.01,.24-.22,.47-.49,.63-.77,1.17-2.18,1.19-4.42,.25-6.68-.21-.49-.5-.92-.92-1.25-.52-.42-1.07-.44-1.57,0-.29,.27-.56,.59-.76,.94-.61,1.05-.76,2.22-.78,3.45Z"/>
      <path d="M18.78,23.57c0-.82,.15-1.33,.41-1.81,.05-.09,.06-.22,.03-.32-.06-.22-.15-.42-.21-.64-.08-.28,.11-.49,.39-.41,.21,.06,.42,.12,.62,.21,.14,.06,.26,.04,.39-.03,1.86-1.04,4.2,0,4.61,2.09,.25,1.27-.14,2.37-1.19,3.16-1,.77-2.13,.88-3.28,.32-1.16-.57-1.73-1.55-1.77-2.58Zm2.37-.12c-.46,.04-.57,.1-.59,.33-.02,.44,.32,.39,.61,.42v.58c0,.27,.13,.42,.36,.42,.22,0,.36-.14,.37-.42,0-.19,0-.39,0-.56,.04-.02,.04-.04,.05-.04,.16,0,.31,0,.47-.01,.25-.01,.39-.14,.39-.37,0-.21-.14-.34-.38-.35-.17,0-.34,0-.49,0-.1-.72,.32-1.24,1.01-1.3,.27-.02,.42-.18,.4-.41-.02-.22-.19-.34-.46-.32-.84,.06-1.52,.66-1.67,1.48-.02,.17-.03,.35-.06,.54Z"/>
      <path d="M21.94,4.5c1.67,0,3.03,1.29,3.15,2.98,.11,1.6-1.1,3.06-2.72,3.29-.7,.1-1.35-.03-1.95-.37-.14-.07-.25-.09-.39-.03-.18,.07-.36,.15-.55,.19-.12,.02-.31,.01-.38-.06-.07-.07-.11-.27-.06-.37,.21-.46,.17-.86-.02-1.35-.84-2.03,.72-4.27,2.93-4.27Zm.07,2.01v-.62c0-.29-.13-.44-.37-.44-.23,0-.36,.15-.36,.44,0,.21,0,.41,0,.62-.3,.04-.69-.07-.71,.37-.01,.49,.42,.33,.71,.4,0,.32,0,.63,0,.94,.02,.65,.31,1.14,.9,1.44,.07,.04,.19,.07,.24,.04,.11-.06,.24-.16,.28-.27,.06-.16,0-.31-.17-.39-.27-.14-.47-.36-.51-.66-.04-.37,0-.74,0-1.11,.61-.07,.72-.12,.7-.39-.02-.47-.42-.32-.71-.38Z"/>
      <path d="M24.26,18.49c-1.58,0-2.78-.91-3.16-2.22-.03-.09-.12-.19-.21-.24-.16-.1-.36-.16-.52-.26-.1-.06-.21-.19-.21-.29,0-.1,.11-.26,.2-.29,.5-.17,.74-.51,.95-.99,.71-1.62,2.67-2.25,4.21-1.4,1.53,.84,2.07,2.83,1.12,4.27-.61,.93-1.49,1.4-2.38,1.43Zm0-4.18c-.11-.19-.26-.32-.49-.25-.24,.07-.24,.27-.24,.48,0,.67,0,1.34,0,2.01,0,.26,.14,.39,.36,.39s.36-.14,.36-.4c0-.29,0-.59,0-.89v-.23c0-.27,.17-.46,.42-.47s.44,.18,.45,.46c.01,.38,0,.76,0,1.14,0,.26,.14,.39,.37,.38,.21,0,.34-.14,.34-.39,0-.4,.04-.8-.01-1.19-.03-.25-.14-.52-.29-.71-.32-.41-.78-.46-1.27-.34Zm-1.93,1.19v1.05c0,.26,.13,.39,.36,.4,.22,0,.36-.13,.36-.39,0-.71,0-1.41,0-2.12,0-.26-.14-.39-.36-.39-.22,0-.35,.14-.35,.4,0,.34,0,.69,0,1.05Z"/>
      <path class="cls-1" d="M7.56,11.13c-1.02,2.55-1.02,5.07,0,7.61-.24,.01-.53,.01-.82,.06-1.12,.17-1.84-.37-2.27-1.33-.82-1.85-.81-3.68,.22-5.46,.31-.52,.76-.92,1.39-.94,.51-.02,1.02,.04,1.47,.06Z"/>
      <path class="cls-1" d="M6.56,19.45h2.86c.05,.29,.12,.56,.14,.84,.02,.21,.1,.25,.29,.25,.47,0,.79,.26,.97,.68,.16,.39,.09,.75-.19,1.06-.21,.24-.47,.35-.79,.35-.64,0-1.27,0-1.91,0-.51,0-.93-.32-1.02-.82-.14-.74-.25-1.49-.37-2.23,0-.02,0-.06,.01-.13Z"/>
      <path class="cls-1" d="M14.43,13.12c.75,.02,1.5,.79,1.55,1.6,.07,1.03-.55,1.87-1.52,2.02-.3-.54-.32-2.52-.04-3.62Z"/>
    </g>
    <path class="cls-2" d="M28.4,30.5H2.6c-1.2,0-2.1-.9-2.1-2.1V2.6C.5,1.4,1.4,.5,2.6,.5H28.4c1.2,0,2.1,.9,2.1,2.1V28.4c0,1.2-.9,2.1-2.1,2.1Z"/>
  </g>
</svg>